PathFileType	4	(X/Y/Z) rotbonepin.trc
DataRate	CameraRate	NumFrames	NumMarkers	Units	OrigDataRate	OrigDataStartFrame	OrigNumFrames
100	100	22	11	mm	100	787	3147
Frame#	Time	gu			centelbow			EpL			centpxt8			centijc7			ij			ts			ac			ai			acc			ijc
		X1	Y1	Z1	X2	Y2	Z2	X3	Y3	Z3	X4	Y4	Z4	X5	Y5	Z5	X6	Y6	Z6	X7	Y7	Z7	X8	Y8	Z8	X9	Y9	Z9  X10	Y10	Z10  X11	Y11	Z11
786	7.86	322.75	22.412	15.303	453.694	15.501	234.657	427.236	5.685	242.387	352.705	-168.562	-104.593	336.305	24.88	-138.273	380.872	-6.992	-131.037	268.923	-52.991	-58.16	296.69	47.545	-12.001	345.667	-129.597	11.631	296.69	47.545	-12.001	380.872	-6.992	-131.037
787	7.87	322.708	22.437	15.26	453.581	15.765	234.663	427.122	5.952	242.395	352.646	-168.568	-104.56	336.282	24.874	-138.258	380.843	-7.004	-131.012	268.873	-53.031	-58.255	296.608	47.508	-12.083	345.583	-129.63	11.581	296.608	47.508	-12.083	380.843	-7.004	-131.012
788	7.88	322.705	22.444	15.248	453.43	15.973	234.745	426.968	6.161	242.466	352.554	-168.61	-104.525	336.242	24.833	-138.243	380.793	-7.054	-130.981	268.81	-53.072	-58.341	296.498	47.47	-12.147	345.466	-129.664	11.563	296.498	47.47	-12.147	380.793	-7.054	-130.981
789	7.89	322.621	22.427	15.22	453.186	16.081	234.816	426.716	6.281	242.525	352.417	-168.65	-104.515	336.173	24.793	-138.262	380.713	-7.106	-130.98	268.726	-53.068	-58.427	296.372	47.477	-12.215	345.324	-129.655	11.546	296.372	47.477	-12.215	380.713	-7.106	-130.98
790	7.9	322.464	22.407	15.145	452.95	16.162	234.791	426.471	6.384	242.499	352.268	-168.65	-104.538	336.087	24.794	-138.31	380.616	-7.117	-131.015	268.654	-53.009	-58.515	296.29	47.532	-12.288	345.195	-129.607	11.509	296.29	47.532	-12.288	380.616	-7.117	-131.015
791	7.91	322.341	22.411	15.047	452.821	16.31	234.7	426.338	6.552	242.417	352.152	-168.634	-104.598	336.011	24.812	-138.382	380.533	-7.107	-131.084	268.632	-52.935	-58.585	296.283	47.589	-12.33	345.108	-129.573	11.467	296.283	47.589	-12.33	380.533	-7.107	-131.084
792	7.92	322.309	22.442	14.977	452.764	16.532	234.651	426.278	6.787	242.374	352.075	-168.637	-104.689	335.952	24.809	-138.477	380.471	-7.115	-131.181	268.654	-52.874	-58.624	296.32	47.622	-12.318	345.061	-129.568	11.441	296.32	47.622	-12.318	380.471	-7.115	-131.181
793	7.93	322.31	22.476	14.949	452.669	16.728	234.684	426.178	6.996	242.404	352.007	-168.642	-104.771	335.901	24.805	-138.567	380.417	-7.122	-131.268	268.667	-52.806	-58.649	296.337	47.662	-12.284	345.012	-129.554	11.424	296.337	47.662	-12.284	380.417	-7.122	-131.268
794	7.94	322.269	22.489	14.907	452.501	16.803	234.719	425.997	7.097	242.432	351.918	-168.616	-104.798	335.854	24.832	-138.607	380.363	-7.103	-131.297	268.616	-52.712	-58.689	296.306	47.728	-12.277	344.906	-129.514	11.385	296.306	47.728	-12.277	380.363	-7.103	-131.297
795	7.95	322.189	22.481	14.808	452.328	16.76	234.674	425.806	7.101	242.385	351.829	-168.587	-104.788	335.821	24.863	-138.609	380.32	-7.082	-131.286	268.517	-52.615	-58.747	296.267	47.795	-12.306	344.748	-129.484	11.317	296.267	47.795	-12.306	380.32	-7.082	-131.286
796	7.96	322.145	22.464	14.705	452.209	16.692	234.615	425.666	7.092	242.327	351.786	-168.599	-104.813	335.814	24.855	-138.628	380.307	-7.098	-131.303	268.437	-52.538	-58.801	296.28	47.836	-12.338	344.61	-129.491	11.234	296.28	47.836	-12.338	380.307	-7.098	-131.303
797	7.97	322.193	22.469	14.685	452.091	16.703	234.693	425.525	7.161	242.396	351.781	-168.642	-104.886	335.829	24.818	-138.68	380.319	-7.141	-131.359	268.401	-52.457	-58.844	296.336	47.876	-12.346	344.524	-129.5	11.145	296.336	47.876	-12.346	380.319	-7.141	-131.359
798	7.98	322.26	22.51	14.741	451.869	16.78	234.92	425.275	7.298	242.602	351.752	-168.668	-104.942	335.837	24.797	-138.725	380.32	-7.171	-131.404	268.359	-52.32	-58.894	296.377	47.961	-12.334	344.426	-129.469	11.04	296.377	47.961	-12.334	380.32	-7.171	-131.404
799	7.99	322.222	22.547	14.777	451.54	16.8	235.126	424.913	7.395	242.788	351.673	-168.659	-104.939	335.823	24.808	-138.739	380.296	-7.172	-131.407	268.256	-52.125	-58.962	296.379	48.085	-12.312	344.239	-129.417	10.906	296.379	48.085	-12.312	380.296	-7.172	-131.407
800	8	322.1	22.566	14.743	451.245	16.751	235.192	424.582	7.448	242.851	351.583	-168.635	-104.896	335.802	24.833	-138.724	380.263	-7.162	-131.383	268.11	-51.908	-59.039	296.39	48.205	-12.277	343.969	-129.397	10.746	296.39	48.205	-12.277	380.263	-7.162	-131.383
801	8.01	322.076	22.62	14.716	451.102	16.779	235.234	424.403	7.582	242.899	351.515	-168.622	-104.877	335.77	24.848	-138.71	380.225	-7.155	-131.367	267.997	-51.688	-59.098	296.477	48.309	-12.207	343.701	-129.418	10.586	296.477	48.309	-12.207	380.225	-7.155	-131.367
802	8.02	322.243	22.72	14.8	451.055	16.902	235.444	424.321	7.804	243.102	351.468	-168.623	-104.909	335.727	24.851	-138.72	380.182	-7.153	-131.381	267.939	-51.465	-59.119	296.615	48.409	-12.088	343.471	-129.445	10.472	296.615	48.409	-12.088	380.182	-7.153	-131.381
803	8.03	322.43	22.781	14.951	450.928	16.946	235.777	424.155	7.946	243.415	351.434	-168.623	-104.944	335.698	24.853	-138.745	380.151	-7.153	-131.408	267.854	-51.262	-59.112	296.71	48.497	-11.947	343.196	-129.478	10.42	296.71	48.497	-11.947	380.151	-7.153	-131.408
804	8.04	322.407	22.742	15.005	450.664	16.797	235.968	423.849	7.913	243.596	351.409	-168.616	-104.938	335.696	24.86	-138.752	380.146	-7.151	-131.411	267.667	-51.107	-59.105	296.725	48.54	-11.827	342.796	-129.562	10.389	296.725	48.54	-11.827	380.146	-7.151	-131.411
805	8.05	322.219	22.647	14.921	450.433	16.561	235.906	423.579	7.807	243.547	351.4	-168.607	-104.901	335.718	24.869	-138.725	380.163	-7.148	-131.381	267.425	-50.996	-59.115	296.722	48.532	-11.734	342.334	-129.707	10.326	296.722	48.532	-11.734	380.163	-7.148	-131.381
806	8.06	322.151	22.578	14.861	450.393	16.401	235.827	423.506	7.77	243.491	351.411	-168.603	-104.87	335.75	24.876	-138.688	380.191	-7.145	-131.342	267.248	-50.896	-59.131	296.779	48.506	-11.631	341.949	-129.87	10.237	296.779	48.506	-11.631	380.191	-7.145	-131.342
807	8.07	322.332	22.572	14.967	450.435	16.342	236.012	423.515	7.816	243.678	351.42	-168.602	-104.872	335.768	24.879	-138.679	380.208	-7.143	-131.329	267.18	-50.782	-59.126	296.895	48.5	-11.489	341.698	-129.994	10.166	296.895	48.5	-11.489	380.208	-7.143	-131.329
